<?xml version="1.0" encoding="utf-8"?>
<!-- Generator: Adobe Illustrator 25.3.1, SVG Export Plug-In . SVG Version: 6.00 Build 0)  -->
<svg version="1.1" id="Layer_1" xmlns="http://www.w3.org/2000/svg" xmlns:xlink="http://www.w3.org/1999/xlink" x="0px" y="0px"
	 viewBox="0 0 18 18" style="enable-background:new 0 0 18 18;" xml:space="preserve">
<style type="text/css">
	.st0{fill:#92929D;}
</style>
<path class="st0" d="M17.6,3.4c0,0-0.1-0.1-0.1-0.1c-0.7-0.5-1.6-0.5-2.2,0.2l-7.6,8l-5-4.5l0,0c-0.6-0.5-1.6-0.5-2.2,0
	C0.2,7.2,0,7.5,0,7.9c0,0.4,0.1,0.8,0.4,1c0,0,0.1,0.1,0.1,0.1l6.2,5.6c0.3,0.3,0.7,0.4,1.1,0.4c0.4,0,0.9-0.2,1.2-0.5l8.6-9.1
	C18.1,4.9,18.1,4,17.6,3.4z"/>
</svg>
