<?xml version="1.0" encoding="utf-8"?>
<!-- Generator: Adobe Illustrator 25.3.1, SVG Export Plug-In . SVG Version: 6.00 Build 0)  -->
<svg version="1.1" id="Слой_1" xmlns="http://www.w3.org/2000/svg" xmlns:xlink="http://www.w3.org/1999/xlink" x="0px" y="0px"
	 viewBox="0 0 8 8" style="enable-background:new 0 0 8 8;" xml:space="preserve">
<style type="text/css">
	.st0{fill:#D21113;}
</style>
<g>
	<path class="st0" d="M4,0.6l-2.1,2h1.3v2h1.5v-2h1.3L4,0.6z M7.7,5.2L6.5,4.4H5.7l1.4,1H5.6c0,0-0.1,0-0.1,0.1L5.2,6.4H2.8L2.5,5.5
		c0,0-0.1-0.1-0.1-0.1H1l1.4-1H1.5L0.3,5.2C0.1,5.3,0,5.6,0,5.8L0.2,7c0.1,0.2,0.3,0.4,0.5,0.4h6.5c0.2,0,0.4-0.2,0.5-0.4L8,5.8
		C8,5.6,7.9,5.3,7.7,5.2z"/>
</g>
</svg>
